<svg width="16" height="12" viewBox="0 0 16 12" fill="none" xmlns="http://www.w3.org/2000/svg">
<path d="M8.00025 0.999449C7.79338 0.999434 7.5916 1.06357 7.42271 1.18303C7.25382 1.30249 7.12614 1.47139 7.05725 1.66645C7.00989 1.78726 6.91742 1.88493 6.79937 1.93881C6.68133 1.9927 6.54696 1.99858 6.42465 1.95522C6.30235 1.91185 6.2017 1.82264 6.14396 1.70643C6.08622 1.59022 6.07593 1.45611 6.11525 1.33245C6.21408 1.05335 6.37364 0.799667 6.58242 0.589724C6.7912 0.379781 7.04398 0.218811 7.32253 0.118436C7.60108 0.0180605 7.89844 -0.0192168 8.19315 0.00929484C8.48786 0.0378065 8.77255 0.131396 9.0267 0.283307C9.28084 0.435218 9.49808 0.64166 9.66274 0.887732C9.8274 1.1338 9.93537 1.41337 9.97886 1.70624C10.0224 1.99911 10.0003 2.29798 9.91422 2.58128C9.82817 2.86458 9.68028 3.12524 9.48125 3.34445C9.38592 3.44845 9.29558 3.54445 9.21025 3.63245C9.05325 3.79645 8.91025 3.94445 8.77825 4.11645C8.58625 4.36645 8.50125 4.56645 8.50125 4.74945C8.5012 4.88542 8.53812 5.01884 8.60805 5.13545C8.67797 5.25205 8.77829 5.34745 8.89825 5.41145L15.0743 8.70545C15.4186 8.88916 15.6916 9.1827 15.85 9.53941C16.0083 9.89611 16.0429 10.2955 15.9482 10.6741C15.8535 11.0527 15.6349 11.3888 15.3273 11.629C15.0196 11.8691 14.6405 11.9995 14.2503 11.9994H1.75025C1.35997 11.9995 0.980879 11.8691 0.673227 11.629C0.365574 11.3888 0.147022 11.0527 0.0523124 10.6741C-0.0423976 10.2955 -0.00783007 9.89611 0.15052 9.53941C0.308871 9.1827 0.581916 8.88916 0.926251 8.70545L6.26525 5.85845C6.32336 5.82488 6.38762 5.80335 6.45422 5.79514C6.52082 5.78693 6.58839 5.79221 6.65291 5.81067C6.71743 5.82913 6.77757 5.86038 6.82975 5.90257C6.88193 5.94476 6.92509 5.99703 6.95664 6.05625C6.9882 6.11547 7.00751 6.18044 7.01343 6.24728C7.01935 6.31412 7.01176 6.38147 6.9911 6.44532C6.97044 6.50916 6.93714 6.56819 6.89319 6.6189C6.84923 6.6696 6.79552 6.71094 6.73525 6.74045L1.39725 9.58745C1.24954 9.6661 1.13238 9.7919 1.0644 9.94482C0.996432 10.0977 0.981556 10.269 1.02214 10.4314C1.06273 10.5937 1.15645 10.7378 1.28839 10.8408C1.42033 10.9437 1.5829 10.9996 1.75025 10.9994H14.2503C14.4176 10.9996 14.5802 10.9437 14.7121 10.8408C14.8441 10.7378 14.9378 10.5937 14.9784 10.4314C15.0189 10.269 15.0041 10.0977 14.9361 9.94482C14.8681 9.7919 14.751 9.6661 14.6033 9.58745L8.42725 6.29345C8.14749 6.14414 7.91357 5.92161 7.75047 5.64966C7.58737 5.37771 7.50123 5.06656 7.50125 4.74945C7.50125 4.24245 7.73825 3.82745 7.98525 3.50645C8.15025 3.29245 8.36025 3.07345 8.53825 2.88645C8.61425 2.80845 8.68192 2.73678 8.74125 2.67145C8.87141 2.52801 8.95712 2.34986 8.98795 2.15864C9.01878 1.96742 8.99342 1.77136 8.91494 1.59427C8.83646 1.41719 8.70824 1.26672 8.54587 1.16112C8.38349 1.05553 8.19394 0.999362 8.00025 0.999449Z" fill="#13ECB6"/>
</svg>
